HIERARCHY
ROOT hip
{
  OFFSET 0 90.174 2.4664
  CHANNELS 6 Xposition Yposition Zposition Zrotation Xrotation Yrotation
  JOINT abdomen
  {
    OFFSET 0 -1.186 -1.5018
    CHANNELS 6 Xposition Yposition Zposition Zrotation Xrotation Yrotation
    JOINT abdomen2
    {
      OFFSET 0 9.964 0.2134
      CHANNELS 6 Xposition Yposition Zposition Zrotation Xrotation Yrotation
      JOINT chest
      {
        OFFSET 0 13.134 -3.2573
        CHANNELS 6 Xposition Yposition Zposition Zrotation Xrotation Yrotation
        JOINT neck
        {
          OFFSET 0 20.686 -1.6905
          CHANNELS 6 Xposition Yposition Zposition Zrotation Xrotation Yrotation
          JOINT head
          {
            OFFSET 0 7.238 -0.1237
            CHANNELS 6 Xposition Yposition Zposition Zrotation Xrotation Yrotation
            End Site
            {
              OFFSET 0 0 0
            }
          }
        }
        JOINT lCollar
        {
          OFFSET 1.7069 20.075 5.0056
          CHANNELS 6 Xposition Yposition Zposition Zrotation Xrotation Yrotation
          JOINT lShldr
          {
            OFFSET 13.6458 -0.047 -4.849
            CHANNELS 6 Xposition Yposition Zposition Zrotation Xrotation Yrotation
            JOINT lForeArm
            {
              OFFSET 28.3255 -0.9759 2.2888
              CHANNELS 6 Xposition Yposition Zposition Zrotation Xrotation Yrotation
              JOINT lHand
              {
                OFFSET 22.1583 -0.53 10.8316
                CHANNELS 6 Xposition Yposition Zposition Zrotation Xrotation Yrotation
                JOINT lThumb1
                {
                  OFFSET 0.786 0.112 2.5817
                  CHANNELS 6 Xposition Yposition Zposition Zrotation Xrotation Yrotation
                  JOINT lThumb2
                  {
                    OFFSET 0.3601 -0.878 4.2331
                    CHANNELS 6 Xposition Yposition Zposition Zrotation Xrotation Yrotation
                    JOINT lThumb2_End
                    {
                      OFFSET 1.8127 -1.216 2.2227
                      CHANNELS 6 Xposition Yposition Zposition Zrotation Xrotation Yrotation
                      End Site
                      {
                        OFFSET 0.0181 -0.0122 0.0222
                      }
                    }
                  }
                }
                JOINT lCarpal1
                {
                  OFFSET 0.9571 1.114 1.7695
                  CHANNELS 6 Xposition Yposition Zposition Zrotation Xrotation Yrotation
                  JOINT lIndex1
                  {
                    OFFSET 4.1246 0.487 4.1451
                    CHANNELS 6 Xposition Yposition Zposition Zrotation Xrotation Yrotation
                    JOINT lIndex2
                    {
                      OFFSET 3.4052 -1.454 2.7682
                      CHANNELS 6 Xposition Yposition Zposition Zrotation Xrotation Yrotation
                      JOINT lIndex2_End
                      {
                        OFFSET 1.4531 -1.795 1.2713
                        CHANNELS 6 Xposition Yposition Zposition Zrotation Xrotation Yrotation
                        End Site
                        {
                          OFFSET 0.0145 -0.0179 0.0127
                        }
                      }
                    }
                  }
                  JOINT lMid1
                  {
                    OFFSET 5.6954 0.21 2.1184
                    CHANNELS 6 Xposition Yposition Zposition Zrotation Xrotation Yrotation
                    JOINT lMid2
                    {
                      OFFSET 3.9766 -1.54 2.3863
                      CHANNELS 6 Xposition Yposition Zposition Zrotation Xrotation Yrotation
                      JOINT lMid2_End
                      {
                        OFFSET 1.4042 -1.926 1.125
                        CHANNELS 6 Xposition Yposition Zposition Zrotation Xrotation Yrotation
                        End Site
                        {
                          OFFSET 0.014 -0.0193 0.0113
                        }
                      }
                    }
                  }
                }
                JOINT lCarpal2
                {
                  OFFSET 2.0956 0.66 -0.3894
                  CHANNELS 6 Xposition Yposition Zposition Zrotation Xrotation Yrotation
                  JOINT lRing1
                  {
                    OFFSET 5.0395 -0.09 2.4971
                    CHANNELS 6 Xposition Yposition Zposition Zrotation Xrotation Yrotation
                    JOINT lRing2
                    {
                      OFFSET 3.7921 -1.552 1.4806
                      CHANNELS 6 Xposition Yposition Zposition Zrotation Xrotation Yrotation
                      JOINT lRing2_End
                      {
                        OFFSET 1.4655 -1.808 0.9609
                        CHANNELS 6 Xposition Yposition Zposition Zrotation Xrotation Yrotation
                        End Site
                        {
                          OFFSET 0.0147 -0.0181 0.0096
                        }
                      }
                    }
                  }
                  JOINT lPinky1
                  {
                    OFFSET 4.9141 -1.269 0.3591
                    CHANNELS 6 Xposition Yposition Zposition Zrotation Xrotation Yrotation
                    JOINT lPinky2
                    {
                      OFFSET 3.1477 -1.685 0.8462
                      CHANNELS 6 Xposition Yposition Zposition Zrotation Xrotation Yrotation
                      JOINT lPinky2_End
                      {
                        OFFSET 0.8055 -1.585 0.7955
                        CHANNELS 6 Xposition Yposition Zposition Zrotation Xrotation Yrotation
                        End Site
                        {
                          OFFSET 0.0081 -0.0158 0.008
                        }
                      }
                    }
                  }
                }
              }
            }
          }
        }
        JOINT rCollar
        {
          OFFSET -1.7069 20.075 5.0056
          CHANNELS 6 Xposition Yposition Zposition Zrotation Xrotation Yrotation
          JOINT rShldr
          {
            OFFSET -13.6458 -0.047 -4.849
            CHANNELS 6 Xposition Yposition Zposition Zrotation Xrotation Yrotation
            JOINT rForeArm
            {
              OFFSET -28.3255 -0.9759 2.2888
              CHANNELS 6 Xposition Yposition Zposition Zrotation Xrotation Yrotation
              JOINT rHand
              {
                OFFSET -22.1583 -0.53 10.8316
                CHANNELS 6 Xposition Yposition Zposition Zrotation Xrotation Yrotation
                JOINT rThumb1
                {
                  OFFSET -0.786 0.112 2.5817
                  CHANNELS 6 Xposition Yposition Zposition Zrotation Xrotation Yrotation
                  JOINT rThumb2
                  {
                    OFFSET -0.3601 -0.878 4.2331
                    CHANNELS 6 Xposition Yposition Zposition Zrotation Xrotation Yrotation
                    JOINT rThumb2_End
                    {
                      OFFSET -1.8127 -1.216 2.2227
                      CHANNELS 6 Xposition Yposition Zposition Zrotation Xrotation Yrotation
                      End Site
                      {
                        OFFSET -0.0181 -0.0122 0.0222
                      }
                    }
                  }
                }
                JOINT rCarpal1
                {
                  OFFSET -0.9571 1.114 1.7695
                  CHANNELS 6 Xposition Yposition Zposition Zrotation Xrotation Yrotation
                  JOINT rIndex1
                  {
                    OFFSET -4.1246 0.487 4.1451
                    CHANNELS 6 Xposition Yposition Zposition Zrotation Xrotation Yrotation
                    JOINT rIndex2
                    {
                      OFFSET -3.4052 -1.454 2.7682
                      CHANNELS 6 Xposition Yposition Zposition Zrotation Xrotation Yrotation
                      JOINT rIndex2_End
                      {
                        OFFSET -1.4531 -1.795 1.2713
                        CHANNELS 6 Xposition Yposition Zposition Zrotation Xrotation Yrotation
                        End Site
                        {
                          OFFSET -0.0145 -0.018 0.0127
                        }
                      }
                    }
                  }
                  JOINT rMid1
                  {
                    OFFSET -5.6954 0.21 2.1184
                    CHANNELS 6 Xposition Yposition Zposition Zrotation Xrotation Yrotation
                    JOINT rMid2
                    {
                      OFFSET -3.9766 -1.54 2.3863
                      CHANNELS 6 Xposition Yposition Zposition Zrotation Xrotation Yrotation
                      JOINT rMid2_End
                      {
                        OFFSET -1.4042 -1.926 1.125
                        CHANNELS 6 Xposition Yposition Zposition Zrotation Xrotation Yrotation
                        End Site
                        {
                          OFFSET -0.014 -0.0193 0.0113
                        }
                      }
                    }
                  }
                }
                JOINT rCarpal2
                {
                  OFFSET -2.0956 0.66 -0.3894
                  CHANNELS 6 Xposition Yposition Zposition Zrotation Xrotation Yrotation
                  JOINT rRing1
                  {
                    OFFSET -5.0395 -0.09 2.4971
                    CHANNELS 6 Xposition Yposition Zposition Zrotation Xrotation Yrotation
                    JOINT rRing2
                    {
                      OFFSET -3.7921 -1.552 1.4806
                      CHANNELS 6 Xposition Yposition Zposition Zrotation Xrotation Yrotation
                      JOINT rRing2_End
                      {
                        OFFSET -1.4655 -1.808 0.9609
                        CHANNELS 6 Xposition Yposition Zposition Zrotation Xrotation Yrotation
                        End Site
                        {
                          OFFSET -0.0147 -0.0181 0.0096
                        }
                      }
                    }
                  }
                  JOINT rPinky1
                  {
                    OFFSET -4.9141 -1.269 0.3592
                    CHANNELS 6 Xposition Yposition Zposition Zrotation Xrotation Yrotation
                    JOINT rPinky2
                    {
                      OFFSET -3.1477 -1.685 0.8462
                      CHANNELS 6 Xposition Yposition Zposition Zrotation Xrotation Yrotation
                      JOINT rPinky2_End
                      {
                        OFFSET -0.8055 -1.585 0.7955
                        CHANNELS 6 Xposition Yposition Zposition Zrotation Xrotation Yrotation
                        End Site
                        {
                          OFFSET -0.0081 -0.0158 0.008
                        }
                      }
                    }
                  }
                }
              }
            }
          }
        }
      }
    }
  }
  JOINT lThigh
  {
    OFFSET 8.367 -8.2066 0.5982
    CHANNELS 6 Xposition Yposition Zposition Zrotation Xrotation Yrotation
    JOINT lShin
    {
      OFFSET 2.1923 -43.463 -0.4932
      CHANNELS 6 Xposition Yposition Zposition Zrotation Xrotation Yrotation
      JOINT lFoot
      {
        OFFSET 0.7333 -45.8593 -2.6451
        CHANNELS 6 Xposition Yposition Zposition Zrotation Xrotation Yrotation
        End Site
        {
          OFFSET 2.6618 -4.2699 12.3931
        }
      }
    }
  }
  JOINT rThigh
  {
    OFFSET -8.367 -8.2066 0.5982
    CHANNELS 6 Xposition Yposition Zposition Zrotation Xrotation Yrotation
    JOINT rShin
    {
      OFFSET -2.1923 -43.463 -0.4931
      CHANNELS 6 Xposition Yposition Zposition Zrotation Xrotation Yrotation
      JOINT rFoot
      {
        OFFSET -0.7333 -45.8593 -2.6451
        CHANNELS 6 Xposition Yposition Zposition Zrotation Xrotation Yrotation
        End Site
        {
          OFFSET -2.6618 -4.2699 12.3931
        }
      }
    }
  }
}
MOTION
Frames:	4
Frame Time:	0.0333333
0 90.174 2.4664 0 0 -0 0 -1.186 -1.5018 0 0 -0 0 9.964 0.2134 0 0 -0 0 13.134 -3.2573 0 0 -0 0 20.686 -1.6905 0 0 -0 0 7.238 -0.1237 0 0 -0 1.7069 20.075 5.0056 0 0 -0 13.6458 -0.047 -4.849 1.66051 0.0835086 5.75766 28.3255 -0.9759 2.2888 -0.0175111 0.895433 15.7816 22.1583 -0.53 10.8316 7.95139e-016 -1.98785e-016 -0 0.786 0.112 2.5817 5.46658e-016 -3.97569e-016 -0 0.3601 -0.878 4.2331 5.96354e-016 0 -0 1.8127 -1.216 2.2227 3.97569e-016 1.98785e-016 9.54166e-015 0.9571 1.114 1.7695 1.49089e-016 -3.97569e-016 -0 4.1246 0.487 4.1451 6.4605e-016 0 3.18055e-015 3.4052 -1.454 2.7682 5.96354e-016 0 3.18055e-015 1.4531 -1.795 1.2713 8.94531e-016 -1.98785e-016 6.36111e-015 5.6954 0.21 2.1184 6.4605e-016 0 3.18055e-015 3.9766 -1.54 2.3863 5.96354e-016 0 3.18055e-015 1.4042 -1.926 1.125 8.94531e-016 -1.98785e-016 6.36111e-015 2.0956 0.66 -0.3894 1.49089e-016 -3.97569e-016 -0 5.0395 -0.09 2.4971 6.4605e-016 0 3.18055e-015 3.7921 -1.552 1.4806 5.96354e-016 0 3.18055e-015 1.4655 -1.808 0.9609 8.94531e-016 -1.98785e-016 6.36111e-015 4.9141 -1.269 0.3591 6.4605e-016 0 3.18055e-015 3.1477 -1.685 0.8462 5.96354e-016 0 3.18055e-015 0.8055 -1.585 0.7955 8.94531e-016 -1.98785e-016 6.36111e-015 -1.7069 20.075 5.0056 0 0 -0 -13.6458 -0.047 -4.849 -1.4496 0.0636048 -5.0245 -28.3255 -0.9759 2.2888 -1.74811 1.20616 -16.8394 -22.1583 -0.53 10.8316 -1.19271e-015 1.98785e-016 -3.18055e-015 -0.786 0.112 2.5817 -3.97569e-016 1.98785e-016 -3.18055e-015 -0.3601 -0.878 4.2331 -2.98177e-016 1.98785e-016 -3.18055e-015 -1.8127 -1.216 2.2227 -2.98177e-016 3.97569e-016 -0 -0.9571 1.114 1.7695 4.96962e-016 0 -6.36111e-015 -4.1246 0.487 4.1451 -9.93923e-017 3.97569e-016 -0 -3.4052 -1.454 2.7682 -8.94531e-016 5.96354e-016 -0 -1.4531 -1.795 1.2713 -3.97569e-016 3.97569e-016 -0 -5.6954 0.21 2.1184 -9.93923e-017 3.97569e-016 -0 -3.9766 -1.54 2.3863 -8.94531e-016 5.96354e-016 -0 -1.4042 -1.926 1.125 -3.97569e-016 3.97569e-016 -0 -2.0956 0.66 -0.3894 4.96962e-016 0 -6.36111e-015 -5.0395 -0.09 2.4971 -9.93923e-017 3.97569e-016 -0 -3.7921 -1.552 1.4806 -8.94531e-016 5.96354e-016 -0 -1.4655 -1.808 0.9609 -3.97569e-016 3.97569e-016 -0 -4.9141 -1.269 0.3592 -9.93923e-017 3.97569e-016 -0 -3.1477 -1.685 0.8462 -8.94531e-016 5.96354e-016 -0 -0.8055 -1.585 0.7955 -3.97569e-016 3.97569e-016 -0 8.367 -8.2066 0.5982 -4.66115 -1.03232 0.120763 2.1923 -43.463 -0.4932 0.00990601 1.55097 0.177175 0.7333 -45.8593 -2.6451 4.65196 -0.54114 -0.255042 -8.367 -8.2066 0.5982 4.66115 -1.03222 -0.120763 -2.1923 -43.463 -0.4931 -0.00990459 1.5509 -0.177176 -0.7333 -45.8593 -2.6451 -4.65196 -0.541171 0.255041 
17.2534 22.5332 18.5473 -0 -33.0001 -0 0 -1.186 -1.5018 1.55037e-007 18.5993 -3.28151e-007 0 9.964 0.2134 4.70906e-007 37.1986 -7.80682e-007 3.55271e-015 13.134 -3.2573 4.70906e-007 37.1986 -7.80682e-007 0 20.686 -1.6905 8.28112e-013 30.9993 -4.44573e-012 0 7.238 -0.1237 0.000415002 0.274518 -0.173106 1.7069 20.075 5.0056 -1.50183e-013 1.22877e-005 -7.8872e-014 13.6458 -0.047 -4.849 -74.0183 -1.32329 -50.2313 28.3255 -0.9759 2.2888 0.134033 -0.288045 -22.2028 22.1583 -0.53 10.8316 -13.9827 5.4836 0.416843 0.786 0.112 2.5817 1.64598e-007 -5.62277e-007 -6.18783e-007 0.3601 -0.878 4.2331 -3.97569e-016 0 1.59028e-015 1.8127 -1.216 2.2227 1.64598e-007 -5.62277e-007 -6.18783e-007 0.9571 1.114 1.7695 7.95139e-016 -6.36111e-015 -1.59028e-015 4.1246 0.487 4.1451 1.64598e-007 -5.62277e-007 -6.18783e-007 3.4052 -1.454 2.7682 -7.95139e-016 0 -1.59028e-015 1.4531 -1.795 1.2713 1.64598e-007 -5.62277e-007 -6.18783e-007 5.6954 0.21 2.1184 1.64598e-007 -5.62277e-007 -6.18783e-007 3.9766 -1.54 2.3863 -7.95139e-016 0 -1.59028e-015 1.4042 -1.926 1.125 1.64598e-007 -5.62277e-007 -6.18783e-007 2.0956 0.66 -0.3894 7.95139e-016 -6.36111e-015 -1.59028e-015 5.0395 -0.09 2.4971 1.64598e-007 -5.62277e-007 -6.18783e-007 3.7921 -1.552 1.4806 -7.95139e-016 0 -1.59028e-015 1.4655 -1.808 0.9609 1.64598e-007 -5.62277e-007 -6.18783e-007 4.9141 -1.269 0.3591 1.64598e-007 -5.62277e-007 -6.18783e-007 3.1477 -1.685 0.8462 -7.95139e-016 0 -1.59028e-015 0.8055 -1.585 0.7955 1.64598e-007 -5.62277e-007 -6.18783e-007 -1.7069 20.075 5.0056 2.93201e-007 5.08083e-006 1.9987 -13.6458 -0.047 -4.849 59.1533 4.04944 75.4433 -28.3255 -0.9759 2.2888 2.61862 2.91098 -5.77439 -22.1583 -0.53 10.8316 7.17795 21.2297 2.19493 -0.786 0.112 2.5817 2.64834e-031 -9.54166e-015 1.59028e-015 -0.3601 -0.878 4.2331 8.82781e-032 -3.18055e-015 1.59028e-015 -1.8127 -1.216 2.2227 7.95139e-016 -1.59028e-014 1.59028e-015 -0.9571 1.114 1.7695 2.64834e-031 -9.54166e-015 1.59028e-015 -4.1246 0.487 4.1451 -2.38542e-015 9.54166e-015 3.18055e-015 -3.4052 -1.454 2.7682 2.64834e-031 -9.54166e-015 1.59028e-015 -1.4531 -1.795 1.2713 -0 -9.54166e-015 -0 -5.6954 0.21 2.1184 -2.38542e-015 9.54166e-015 3.18055e-015 -3.9766 -1.54 2.3863 2.64834e-031 -9.54166e-015 1.59028e-015 -1.4042 -1.926 1.125 -0 -9.54166e-015 -0 -2.0956 0.66 -0.3894 2.64834e-031 -9.54166e-015 1.59028e-015 -5.0395 -0.09 2.4971 -2.38542e-015 9.54166e-015 3.18055e-015 -3.7921 -1.552 1.4806 2.64834e-031 -9.54166e-015 1.59028e-015 -1.4655 -1.808 0.9609 -0 -9.54166e-015 -0 -4.9141 -1.269 0.3592 -2.38542e-015 9.54166e-015 3.18055e-015 -3.1477 -1.685 0.8462 2.64834e-031 -9.54166e-015 1.59028e-015 -0.8055 -1.585 0.7955 -0 -9.54166e-015 -0 8.367 -8.2066 0.5982 41.5042 -28.6831 7.8456 2.1923 -43.463 -0.4932 178.813 41.2087 -167.09 0.7333 -45.8593 -2.6451 0.380988 55.9794 8.17891 -8.367 -8.2066 0.5982 -45.7202 -17.6591 1.20041 -2.1923 -43.463 -0.4931 -178.949 47.5157 169.929 -0.7333 -45.8593 -2.6451 -5.12013 28.9254 -4.6693 
17.2856 22.5452 19.3067 -0 -33.0001 -0 0 -1.186 -1.5018 1.55037e-007 18.5993 -3.28151e-007 0 9.964 0.2134 4.70906e-007 37.1986 -7.80682e-007 0 13.134 -3.2573 4.70906e-007 37.1986 -7.80682e-007 -3.55271e-015 20.686 -1.6905 4.10104e-013 30.7591 -6.7066e-012 -3.55271e-015 7.238 -0.1237 0.000414991 0.274508 -0.173106 1.7069 20.075 5.0056 -1.50183e-013 1.22877e-005 -7.8872e-014 13.6458 -0.047 -4.849 -73.7951 -1.3873 -49.6117 28.3255 -0.9759 2.2888 0.125793 -0.325859 -23.4125 22.1583 -0.53 10.8316 -14.603 5.23267 0.473541 0.786 0.112 2.5817 1.59028e-015 6.36111e-015 -1.59028e-015 0.3601 -0.878 4.2331 1.59028e-015 6.36111e-015 -3.18055e-015 1.8127 -1.216 2.2227 1.98785e-015 6.36111e-015 -1.59028e-015 0.9571 1.114 1.7695 7.95139e-016 6.36111e-015 -0 4.1246 0.487 4.1451 -2.78299e-015 3.18055e-015 4.77083e-015 3.4052 -1.454 2.7682 7.95139e-016 3.18055e-015 -1.59028e-015 1.4531 -1.795 1.2713 1.98785e-015 0 -3.18055e-015 5.6954 0.21 2.1184 -2.78299e-015 3.18055e-015 4.77083e-015 3.9766 -1.54 2.3863 7.95139e-016 3.18055e-015 -1.59028e-015 1.4042 -1.926 1.125 1.98785e-015 0 -3.18055e-015 2.0956 0.66 -0.3894 7.95139e-016 6.36111e-015 -0 5.0395 -0.09 2.4971 -2.78299e-015 3.18055e-015 4.77083e-015 3.7921 -1.552 1.4806 7.95139e-016 3.18055e-015 -1.59028e-015 1.4655 -1.808 0.9609 1.98785e-015 0 -3.18055e-015 4.9141 -1.269 0.3591 -2.78299e-015 3.18055e-015 4.77083e-015 3.1477 -1.685 0.8462 7.95139e-016 3.18055e-015 -1.59028e-015 0.8055 -1.585 0.7955 1.98785e-015 0 -3.18055e-015 -1.7069 20.075 5.0056 2.93201e-007 5.08083e-006 1.9987 -13.6458 -0.047 -4.849 59.2132 4.50813 74.6413 -28.3255 -0.9759 2.2888 2.61862 2.91097 -5.77439 -22.1583 -0.53 10.8316 7.17794 21.2298 2.19494 -0.786 0.112 2.5817 7.95139e-016 3.18055e-015 3.18055e-015 -0.3601 -0.878 4.2331 -0 0 1.59028e-015 -1.8127 -1.216 2.2227 1.59028e-015 -3.18055e-015 1.19271e-015 -0.9571 1.114 1.7695 -1.32417e-031 3.18055e-015 2.38542e-015 -4.1246 0.487 4.1451 -2.38542e-015 0 1.98785e-015 -3.4052 -1.454 2.7682 -7.95139e-016 -3.18055e-015 7.95139e-016 -1.4531 -1.795 1.2713 7.95139e-016 0 7.95139e-016 -5.6954 0.21 2.1184 -2.38542e-015 0 1.98785e-015 -3.9766 -1.54 2.3863 -7.95139e-016 -3.18055e-015 7.95139e-016 -1.4042 -1.926 1.125 7.95139e-016 0 7.95139e-016 -2.0956 0.66 -0.3894 -1.32417e-031 3.18055e-015 2.38542e-015 -5.0395 -0.09 2.4971 -2.38542e-015 0 1.98785e-015 -3.7921 -1.552 1.4806 -7.95139e-016 -3.18055e-015 7.95139e-016 -1.4655 -1.808 0.9609 7.95139e-016 0 7.95139e-016 -4.9141 -1.269 0.3592 -2.38542e-015 0 1.98785e-015 -3.1477 -1.685 0.8462 -7.95139e-016 -3.18055e-015 7.95139e-016 -0.8055 -1.585 0.7955 7.95139e-016 0 7.95139e-016 8.367 -8.2066 0.5982 42.1121 -27.4559 7.1609 2.1923 -43.463 -0.4932 178.822 41.9775 -167.292 0.7333 -45.8593 -2.6451 0.519828 55.7356 7.96216 -8.367 -8.2066 0.5982 -45.8036 -16.4626 2.45072 -2.1923 -43.463 -0.4931 -178.956 49.0054 170.231 -0.7333 -45.8593 -2.6451 -5.14631 28.5973 -4.46395 
17.3178 22.5523 20.0654 -0 -33.0001 -0 0 -1.186 -1.5018 1.55037e-007 18.5993 -3.28151e-007 0 9.964 0.2134 4.70906e-007 37.1986 -7.80682e-007 3.55271e-015 13.134 -3.2573 4.70905e-007 37.1986 -7.80682e-007 3.55271e-015 20.686 -1.6905 4.80803e-013 30.5186 -5.38381e-012 0 7.238 -0.1237 0.000415028 0.274519 -0.173106 1.7069 20.075 5.0056 -1.33822e-013 1.52454e-005 -1.9119e-013 13.6458 -0.047 -4.849 -73.5708 -1.44904 -48.9905 28.3255 -0.9759 2.2888 0.116675 -0.363794 -24.6317 22.1583 -0.53 10.8316 -15.2241 4.98062 0.527576 0.786 0.112 2.5817 -7.95139e-016 -6.36111e-015 -1.59028e-015 0.3601 -0.878 4.2331 1.59028e-015 -6.36111e-015 -0 1.8127 -1.216 2.2227 1.59028e-015 -9.54166e-015 -4.77083e-015 0.9571 1.114 1.7695 -7.95139e-016 -3.18055e-015 -1.59028e-015 4.1246 0.487 4.1451 -1.59028e-015 0 6.36111e-015 3.4052 -1.454 2.7682 2.38542e-015 -3.18055e-015 1.59028e-015 1.4531 -1.795 1.2713 2.38542e-015 -3.18055e-015 1.59028e-015 5.6954 0.21 2.1184 -1.59028e-015 0 6.36111e-015 3.9766 -1.54 2.3863 2.38542e-015 -3.18055e-015 1.59028e-015 1.4042 -1.926 1.125 2.38542e-015 -3.18055e-015 1.59028e-015 2.0956 0.66 -0.3894 -7.95139e-016 -3.18055e-015 -1.59028e-015 5.0395 -0.09 2.4971 -1.59028e-015 0 6.36111e-015 3.7921 -1.552 1.4806 2.38542e-015 -3.18055e-015 1.59028e-015 1.4655 -1.808 0.9609 2.38542e-015 -3.18055e-015 1.59028e-015 4.9141 -1.269 0.3591 -1.59028e-015 0 6.36111e-015 3.1477 -1.685 0.8462 2.38542e-015 -3.18055e-015 1.59028e-015 0.8055 -1.585 0.7955 2.38542e-015 -3.18055e-015 1.59028e-015 -1.7069 20.075 5.0056 8.96469e-008 1.14508e-005 1.9987 -13.6458 -0.047 -4.849 59.2797 4.96624 73.8378 -28.3255 -0.9759 2.2888 2.61861 2.91097 -5.7744 -22.1583 -0.53 10.8316 7.17793 21.2297 2.19494 -0.786 0.112 2.5817 -1.59028e-015 -1.27222e-014 -0 -0.3601 -0.878 4.2331 -2.38542e-015 -3.18055e-015 -7.95139e-016 -1.8127 -1.216 2.2227 -7.95139e-016 -3.18055e-015 -7.95139e-016 -0.9571 1.114 1.7695 2.20695e-032 -3.18055e-015 3.97569e-016 -4.1246 0.487 4.1451 -3.18055e-015 3.18055e-015 7.95139e-016 -3.4052 -1.454 2.7682 -1.59028e-015 -9.54166e-015 -7.95139e-016 -1.4531 -1.795 1.2713 -3.18055e-015 -3.18055e-015 -1.59028e-015 -5.6954 0.21 2.1184 -3.18055e-015 3.18055e-015 7.95139e-016 -3.9766 -1.54 2.3863 -1.59028e-015 -9.54166e-015 -7.95139e-016 -1.4042 -1.926 1.125 -3.18055e-015 -3.18055e-015 -1.59028e-015 -2.0956 0.66 -0.3894 2.20695e-032 -3.18055e-015 3.97569e-016 -5.0395 -0.09 2.4971 -3.18055e-015 3.18055e-015 7.95139e-016 -3.7921 -1.552 1.4806 -1.59028e-015 -9.54166e-015 -7.95139e-016 -1.4655 -1.808 0.9609 -3.18055e-015 -3.18055e-015 -1.59028e-015 -4.9141 -1.269 0.3592 -3.18055e-015 3.18055e-015 7.95139e-016 -3.1477 -1.685 0.8462 -1.59028e-015 -9.54166e-015 -7.95139e-016 -0.8055 -1.585 0.7955 -3.18055e-015 -3.18055e-015 -1.59028e-015 8.367 -8.2066 0.5982 42.7306 -26.2425 6.47861 2.1923 -43.463 -0.4932 178.831 42.7446 -167.489 0.7333 -45.8593 -2.6451 0.65258 55.5011 7.7529 -8.367 -8.2066 0.5982 -45.9118 -15.2877 3.66771 -2.1923 -43.463 -0.4931 -178.96 50.4973 170.514 -0.7333 -45.8593 -2.6451 -5.17217 28.2874 -4.27034 
